<?xml version="1.0" encoding="utf-8"?>
<!-- Generator: Adobe Illustrator 15.1.0, SVG Export Plug-In . SVG Version: 6.00 Build 0)  -->
<!DOCTYPE svg PUBLIC "-//W3C//DTD SVG 1.0//EN" "http://www.w3.org/TR/2001/REC-SVG-20010904/DTD/svg10.dtd">
<svg version="1.0" id="Layer_1" xmlns="http://www.w3.org/2000/svg" xmlns:xlink="http://www.w3.org/1999/xlink" x="0px" y="0px"
	 width="300px" height="200px" viewBox="0 0 300 200" enable-background="new 0 0 300 200" xml:space="preserve">
<line fill="none" stroke="#C1272D" stroke-width="2" stroke-miterlimit="10" x1="144.992" y1="14.937" x2="60.97" y2="185.46"/>
<line fill="none" stroke="#C1272D" stroke-width="2" stroke-miterlimit="10" x1="60.97" y1="185.46" x2="243.063" y2="80.501"/>
<line fill="none" stroke="#C1272D" stroke-width="2" stroke-miterlimit="10" x1="243.063" y1="80.501" x2="56.562" y2="80.501"/>
<line fill="none" stroke="#C1272D" stroke-width="2" stroke-miterlimit="10" x1="56.562" y1="80.501" x2="201.466" y2="185.46"/>
<line fill="none" stroke="#C1272D" stroke-width="2" stroke-miterlimit="10" x1="201.466" y1="185.46" x2="144.992" y2="14.937"/>
<path fill="none" stroke="#000000" stroke-width="3" stroke-miterlimit="10" d="M243.738,155.077
	c-44.645,41.194-116.859,41.035-161.292-0.354c-35.547-33.112-35.41-86.67,0.306-119.625c28.573-26.365,74.789-26.263,103.228,0.226
	c22.75,21.192,22.662,55.469-0.196,76.561c-18.287,16.872-47.865,16.809-66.065-0.145c-14.56-13.563-14.505-35.5,0.125-49
	c11.703-10.798,30.633-10.757,42.282,0.094c9.319,8.679,9.282,22.72-0.081,31.359c-7.489,6.911-19.604,6.884-27.059-0.06
	c-5.964-5.556-5.941-14.541,0.051-20.07"/>
</svg>
